<?xml version="1.0" encoding="UTF-8" standalone="no"?>
<!DOCTYPE svg PUBLIC "-//W3C//DTD SVG 1.1//EN"
 "http://www.w3.org/Graphics/SVG/1.1/DTD/svg11.dtd">
<!-- Generated by graphviz version 7.1.0 (20230121.1956)
 -->
<!-- Pages: 1 -->
<svg width="560pt" height="222pt"
 viewBox="0.00 0.00 559.52 221.74" xmlns="http://www.w3.org/2000/svg" xmlns:xlink="http://www.w3.org/1999/xlink">
<g id="graph0" class="graph" transform="scale(1 1) rotate(0) translate(4 217.74)">
<polygon fill="white" stroke="none" points="-4,4 -4,-217.74 555.52,-217.74 555.52,4 -4,4"/>
<!-- other stuff
(location, race, parent income, etc.) -->
<g id="node1" class="node">
<title>other stuff
(location, race, parent income, etc.)</title>
<ellipse fill="none" stroke="black" cx="152.03" cy="-186.87" rx="152.06" ry="26.74"/>
<text text-anchor="middle" x="152.03" y="-190.67" font-family="Times New Roman,serif" font-size="14.00">other stuff</text>
<text text-anchor="middle" x="152.03" y="-175.67" font-family="Times New Roman,serif" font-size="14.00">(location, race, parent income, etc.)</text>
</g>
<!-- years of education -->
<g id="node2" class="node">
<title>years of education</title>
<ellipse fill="none" stroke="black" cx="382.03" cy="-91" rx="77.19" ry="18"/>
<text text-anchor="middle" x="382.03" y="-87.3" font-family="Times New Roman,serif" font-size="14.00">years of education</text>
</g>
<!-- other stuff
(location, race, parent income, etc.)&#45;&gt;years of education -->
<g id="edge1" class="edge">
<title>other stuff
(location, race, parent income, etc.)&#45;&gt;years of education</title>
<path fill="none" stroke="black" stroke-dasharray="5,2" d="M210.96,-161.82C249.2,-146.21 298.38,-126.14 334.19,-111.52"/>
<polygon fill="black" stroke="black" points="335.51,-114.77 343.45,-107.75 332.86,-108.28 335.51,-114.77"/>
</g>
<!-- wages -->
<g id="node4" class="node">
<title>wages</title>
<ellipse fill="none" stroke="black" cx="382.03" cy="-18" rx="33.29" ry="18"/>
<text text-anchor="middle" x="382.03" y="-14.3" font-family="Times New Roman,serif" font-size="14.00">wages</text>
</g>
<!-- other stuff
(location, race, parent income, etc.)&#45;&gt;wages -->
<g id="edge3" class="edge">
<title>other stuff
(location, race, parent income, etc.)&#45;&gt;wages</title>
<path fill="none" stroke="black" stroke-dasharray="5,2" d="M182.78,-160.25C211.46,-136.72 255.75,-101.32 296.03,-73 313.59,-60.66 333.89,-47.84 350.36,-37.8"/>
<polygon fill="black" stroke="black" points="352.02,-40.88 358.77,-32.71 348.4,-34.89 352.02,-40.88"/>
</g>
<!-- years of education&#45;&gt;wages -->
<g id="edge4" class="edge">
<title>years of education&#45;&gt;wages</title>
<path fill="none" stroke="black" d="M382.03,-72.81C382.03,-65.23 382.03,-56.1 382.03,-47.54"/>
<polygon fill="black" stroke="black" points="385.53,-47.54 382.03,-37.54 378.53,-47.54 385.53,-47.54"/>
</g>
<!-- instrument
(birth order) -->
<g id="node3" class="node">
<title>instrument
(birth order)</title>
<ellipse fill="none" stroke="black" cx="382.03" cy="-186.87" rx="60.21" ry="26.74"/>
<text text-anchor="middle" x="382.03" y="-190.67" font-family="Times New Roman,serif" font-size="14.00">instrument</text>
<text text-anchor="middle" x="382.03" y="-175.67" font-family="Times New Roman,serif" font-size="14.00">(birth order)</text>
</g>
<!-- instrument
(birth order)&#45;&gt;years of education -->
<g id="edge2" class="edge">
<title>instrument
(birth order)&#45;&gt;years of education</title>
<path fill="none" stroke="black" d="M382.03,-159.72C382.03,-147.55 382.03,-133.05 382.03,-120.59"/>
<polygon fill="black" stroke="black" points="385.53,-120.93 382.03,-110.93 378.53,-120.93 385.53,-120.93"/>
<text text-anchor="middle" x="406.53" y="-130.8" font-family="Times New Roman,serif" font-size="14.00">1st stage</text>
</g>
<!-- # siblings -->
<g id="node5" class="node">
<title># siblings</title>
<ellipse fill="none" stroke="black" cx="506.03" cy="-186.87" rx="45.49" ry="18"/>
<text text-anchor="middle" x="506.03" y="-183.17" font-family="Times New Roman,serif" font-size="14.00"># siblings</text>
</g>
<!-- # siblings&#45;&gt;years of education -->
<g id="edge5" class="edge">
<title># siblings&#45;&gt;years of education</title>
<path fill="none" stroke="black" d="M488.08,-170.06C473.98,-157.88 453.68,-140.83 435.03,-127 429.39,-122.82 423.28,-118.55 417.28,-114.5"/>
<polygon fill="black" stroke="black" points="419.55,-111.81 409.28,-109.2 415.68,-117.65 419.55,-111.81"/>
</g>
<!-- # siblings&#45;&gt;wages -->
<g id="edge6" class="edge">
<title># siblings&#45;&gt;wages</title>
<path fill="none" stroke="black" d="M503.88,-168.47C500.17,-144.7 490.68,-101.74 468.03,-73 455.01,-56.49 435.46,-43.64 418.29,-34.63"/>
<polygon fill="black" stroke="black" points="419.85,-31.5 409.34,-30.19 416.74,-37.77 419.85,-31.5"/>
</g>
</g>
</svg>
