<?xml version="1.0" encoding="UTF-8" standalone="no"?>
<!DOCTYPE svg PUBLIC "-//W3C//DTD SVG 1.1//EN"
 "http://www.w3.org/Graphics/SVG/1.1/DTD/svg11.dtd">
<!-- Generated by graphviz version 7.1.0 (20230121.1956)
 -->
<!-- Pages: 1 -->
<svg width="312pt" height="206pt"
 viewBox="0.00 0.00 312.06 205.74" xmlns="http://www.w3.org/2000/svg" xmlns:xlink="http://www.w3.org/1999/xlink">
<g id="graph0" class="graph" transform="scale(1 1) rotate(0) translate(4 201.74)">
<polygon fill="white" stroke="none" points="-4,4 -4,-201.74 308.06,-201.74 308.06,4 -4,4"/>
<!-- other stuff
(location, race, parent income, etc.) -->
<g id="node1" class="node">
<title>other stuff
(location, race, parent income, etc.)</title>
<ellipse fill="none" stroke="black" cx="152.03" cy="-170.87" rx="152.06" ry="26.74"/>
<text text-anchor="middle" x="152.03" y="-174.67" font-family="Times New Roman,serif" font-size="14.00">other stuff</text>
<text text-anchor="middle" x="152.03" y="-159.67" font-family="Times New Roman,serif" font-size="14.00">(location, race, parent income, etc.)</text>
</g>
<!-- years of education -->
<g id="node2" class="node">
<title>years of education</title>
<ellipse fill="none" stroke="black" cx="100.03" cy="-90" rx="77.19" ry="18"/>
<text text-anchor="middle" x="100.03" y="-86.3" font-family="Times New Roman,serif" font-size="14.00">years of education</text>
</g>
<!-- other stuff
(location, race, parent income, etc.)&#45;&gt;years of education -->
<g id="edge1" class="edge">
<title>other stuff
(location, race, parent income, etc.)&#45;&gt;years of education</title>
<path fill="none" stroke="black" stroke-dasharray="5,2" d="M135,-144.05C129.38,-135.52 123.12,-126.03 117.47,-117.46"/>
<polygon fill="black" stroke="black" points="120.45,-115.62 112.02,-109.2 114.61,-119.47 120.45,-115.62"/>
</g>
<!-- wages -->
<g id="node3" class="node">
<title>wages</title>
<ellipse fill="none" stroke="black" cx="152.03" cy="-18" rx="33.29" ry="18"/>
<text text-anchor="middle" x="152.03" y="-14.3" font-family="Times New Roman,serif" font-size="14.00">wages</text>
</g>
<!-- other stuff
(location, race, parent income, etc.)&#45;&gt;wages -->
<g id="edge2" class="edge">
<title>other stuff
(location, race, parent income, etc.)&#45;&gt;wages</title>
<path fill="none" stroke="black" stroke-dasharray="5,2" d="M170.04,-144C176.41,-133.35 182.8,-120.58 186.03,-108 190.01,-92.5 190.53,-87.35 186.03,-72 183.11,-62.05 177.68,-52.19 172.01,-43.73"/>
<polygon fill="black" stroke="black" points="174.94,-41.81 166.26,-35.74 169.26,-45.9 174.94,-41.81"/>
</g>
<!-- years of education&#45;&gt;wages -->
<g id="edge3" class="edge">
<title>years of education&#45;&gt;wages</title>
<path fill="none" stroke="black" d="M112.62,-72.05C118.86,-63.65 126.53,-53.32 133.44,-44.02"/>
<polygon fill="black" stroke="black" points="136.21,-46.16 139.37,-36.04 130.59,-41.98 136.21,-46.16"/>
</g>
</g>
</svg>
