<?xml version="1.0" encoding="UTF-8" standalone="no"?>
<!DOCTYPE svg PUBLIC "-//W3C//DTD SVG 1.1//EN"
 "http://www.w3.org/Graphics/SVG/1.1/DTD/svg11.dtd">
<!-- Generated by graphviz version 7.1.0 (20230121.1956)
 -->
<!-- Pages: 1 -->
<svg width="452pt" height="222pt"
 viewBox="0.00 0.00 451.52 221.74" xmlns="http://www.w3.org/2000/svg" xmlns:xlink="http://www.w3.org/1999/xlink">
<g id="graph0" class="graph" transform="scale(1 1) rotate(0) translate(4 217.74)">
<polygon fill="white" stroke="none" points="-4,4 -4,-217.74 447.52,-217.74 447.52,4 -4,4"/>
<!-- other stuff
(location, race, parent income, etc.) -->
<g id="node1" class="node">
<title>other stuff
(location, race, parent income, etc.)</title>
<ellipse fill="none" stroke="black" cx="152.03" cy="-186.87" rx="152.06" ry="26.74"/>
<text text-anchor="middle" x="152.03" y="-190.67" font-family="Times New Roman,serif" font-size="14.00">other stuff</text>
<text text-anchor="middle" x="152.03" y="-175.67" font-family="Times New Roman,serif" font-size="14.00">(location, race, parent income, etc.)</text>
</g>
<!-- years of education -->
<g id="node2" class="node">
<title>years of education</title>
<ellipse fill="none" stroke="black" cx="257.03" cy="-91" rx="77.19" ry="18"/>
<text text-anchor="middle" x="257.03" y="-87.3" font-family="Times New Roman,serif" font-size="14.00">years of education</text>
</g>
<!-- other stuff
(location, race, parent income, etc.)&#45;&gt;years of education -->
<g id="edge1" class="edge">
<title>other stuff
(location, race, parent income, etc.)&#45;&gt;years of education</title>
<path fill="none" stroke="black" stroke-dasharray="5,2" d="M180.72,-160.22C196.05,-146.52 214.81,-129.74 229.9,-116.25"/>
<polygon fill="black" stroke="black" points="232.05,-119.02 237.17,-109.75 227.39,-113.81 232.05,-119.02"/>
</g>
<!-- wages -->
<g id="node4" class="node">
<title>wages</title>
<ellipse fill="none" stroke="black" cx="257.03" cy="-18" rx="33.29" ry="18"/>
<text text-anchor="middle" x="257.03" y="-14.3" font-family="Times New Roman,serif" font-size="14.00">wages</text>
</g>
<!-- other stuff
(location, race, parent income, etc.)&#45;&gt;wages -->
<g id="edge3" class="edge">
<title>other stuff
(location, race, parent income, etc.)&#45;&gt;wages</title>
<path fill="none" stroke="black" stroke-dasharray="5,2" d="M150.59,-159.93C150.49,-135.52 153.71,-98.95 171.03,-73 182.81,-55.35 202.52,-42.36 220.11,-33.55"/>
<polygon fill="black" stroke="black" points="221.2,-36.9 228.77,-29.48 218.23,-30.56 221.2,-36.9"/>
</g>
<!-- years of education&#45;&gt;wages -->
<g id="edge4" class="edge">
<title>years of education&#45;&gt;wages</title>
<path fill="none" stroke="black" d="M257.03,-72.81C257.03,-65.23 257.03,-56.1 257.03,-47.54"/>
<polygon fill="black" stroke="black" points="260.53,-47.54 257.03,-37.54 253.53,-47.54 260.53,-47.54"/>
</g>
<!-- instrument
(birth order) -->
<g id="node3" class="node">
<title>instrument
(birth order)</title>
<ellipse fill="none" stroke="black" cx="382.03" cy="-186.87" rx="60.21" ry="26.74"/>
<text text-anchor="middle" x="382.03" y="-190.67" font-family="Times New Roman,serif" font-size="14.00">instrument</text>
<text text-anchor="middle" x="382.03" y="-175.67" font-family="Times New Roman,serif" font-size="14.00">(birth order)</text>
</g>
<!-- instrument
(birth order)&#45;&gt;years of education -->
<g id="edge2" class="edge">
<title>instrument
(birth order)&#45;&gt;years of education</title>
<path fill="none" stroke="black" d="M352.09,-163.39C332.85,-148.94 307.89,-130.2 288.38,-115.54"/>
<polygon fill="black" stroke="black" points="290.59,-112.83 280.5,-109.62 286.39,-118.43 290.59,-112.83"/>
<text text-anchor="middle" x="348.53" y="-130.8" font-family="Times New Roman,serif" font-size="14.00">1st stage</text>
</g>
<!-- # siblings -->
<g id="node5" class="node">
<title># siblings</title>
<ellipse fill="none" stroke="black" cx="398.03" cy="-91" rx="45.49" ry="18"/>
<text text-anchor="middle" x="398.03" y="-87.3" font-family="Times New Roman,serif" font-size="14.00"># siblings</text>
</g>
<!-- # siblings&#45;&gt;wages -->
<g id="edge5" class="edge">
<title># siblings&#45;&gt;wages</title>
<path fill="none" stroke="black" d="M370.84,-76.31C348.12,-64.87 315.59,-48.49 291.12,-36.17"/>
<polygon fill="black" stroke="black" points="292.7,-33.05 282.2,-31.67 289.56,-39.3 292.7,-33.05"/>
</g>
</g>
</svg>
