<?xml version="1.0" encoding="UTF-8" standalone="no"?>
<!DOCTYPE svg PUBLIC "-//W3C//DTD SVG 1.1//EN"
 "http://www.w3.org/Graphics/SVG/1.1/DTD/svg11.dtd">
<!-- Generated by graphviz version 7.1.0 (20230121.1956)
 -->
<!-- Pages: 1 -->
<svg width="442pt" height="222pt"
 viewBox="0.00 0.00 441.89 221.74" xmlns="http://www.w3.org/2000/svg" xmlns:xlink="http://www.w3.org/1999/xlink">
<g id="graph0" class="graph" transform="scale(1 1) rotate(0) translate(4 217.74)">
<polygon fill="white" stroke="none" points="-4,4 -4,-217.74 437.89,-217.74 437.89,4 -4,4"/>
<!-- other stuff
(location, race, parent income, etc.) -->
<g id="node1" class="node">
<title>other stuff
(location, race, parent income, etc.)</title>
<ellipse fill="none" stroke="black" cx="152.03" cy="-186.87" rx="152.06" ry="26.74"/>
<text text-anchor="middle" x="152.03" y="-190.67" font-family="Times New Roman,serif" font-size="14.00">other stuff</text>
<text text-anchor="middle" x="152.03" y="-175.67" font-family="Times New Roman,serif" font-size="14.00">(location, race, parent income, etc.)</text>
</g>
<!-- years of education -->
<g id="node2" class="node">
<title>years of education</title>
<ellipse fill="none" stroke="black" cx="257.03" cy="-91" rx="77.19" ry="18"/>
<text text-anchor="middle" x="257.03" y="-87.3" font-family="Times New Roman,serif" font-size="14.00">years of education</text>
</g>
<!-- other stuff
(location, race, parent income, etc.)&#45;&gt;years of education -->
<g id="edge1" class="edge">
<title>other stuff
(location, race, parent income, etc.)&#45;&gt;years of education</title>
<path fill="none" stroke="black" stroke-dasharray="5,2" d="M180.72,-160.22C196.05,-146.52 214.81,-129.74 229.9,-116.25"/>
<polygon fill="black" stroke="black" points="232.05,-119.02 237.17,-109.75 227.39,-113.81 232.05,-119.02"/>
</g>
<!-- wages -->
<g id="node4" class="node">
<title>wages</title>
<ellipse fill="none" stroke="black" cx="164.03" cy="-18" rx="33.29" ry="18"/>
<text text-anchor="middle" x="164.03" y="-14.3" font-family="Times New Roman,serif" font-size="14.00">wages</text>
</g>
<!-- other stuff
(location, race, parent income, etc.)&#45;&gt;wages -->
<g id="edge3" class="edge">
<title>other stuff
(location, race, parent income, etc.)&#45;&gt;wages</title>
<path fill="none" stroke="black" stroke-dasharray="5,2" d="M153.9,-159.8C156.09,-129.37 159.7,-79.22 161.96,-47.7"/>
<polygon fill="black" stroke="black" points="165.45,-47.96 162.68,-37.74 158.47,-47.46 165.45,-47.96"/>
</g>
<!-- years of education&#45;&gt;wages -->
<g id="edge4" class="edge">
<title>years of education&#45;&gt;wages</title>
<path fill="none" stroke="black" d="M235.46,-73.53C222.34,-63.52 205.47,-50.64 191.41,-39.91"/>
<polygon fill="black" stroke="black" points="193.93,-37.42 183.86,-34.14 189.68,-42.99 193.93,-37.42"/>
</g>
<!-- instrument
(# siblings) -->
<g id="node3" class="node">
<title>instrument
(# siblings)</title>
<ellipse fill="none" stroke="black" cx="378.03" cy="-186.87" rx="55.72" ry="26.74"/>
<text text-anchor="middle" x="378.03" y="-190.67" font-family="Times New Roman,serif" font-size="14.00">instrument</text>
<text text-anchor="middle" x="378.03" y="-175.67" font-family="Times New Roman,serif" font-size="14.00">(# siblings)</text>
</g>
<!-- instrument
(# siblings)&#45;&gt;years of education -->
<g id="edge2" class="edge">
<title>instrument
(# siblings)&#45;&gt;years of education</title>
<path fill="none" stroke="black" d="M349.35,-163.62C330.61,-149.09 306.18,-130.13 287.16,-115.38"/>
<polygon fill="black" stroke="black" points="289.55,-112.8 279.5,-109.43 285.26,-118.33 289.55,-112.8"/>
<text text-anchor="middle" x="346.53" y="-130.8" font-family="Times New Roman,serif" font-size="14.00">1st stage</text>
</g>
</g>
</svg>
